<svg width="73" height="13" viewBox="0 0 73 13" fill="none" xmlns="http://www.w3.org/2000/svg">
<path d="M5.58354 4.4386L6.5 1.61803L7.41646 4.4386C7.52356 4.76822 7.83072 4.99139 8.1773 4.99139H11.143L8.74371 6.7346C8.46332 6.93831 8.34599 7.29941 8.45309 7.62902L9.36955 10.4496L6.97023 8.70639C6.68984 8.50267 6.31016 8.50267 6.02977 8.70639L3.63045 10.4496L4.54691 7.62902C4.65401 7.29941 4.53668 6.93831 4.25629 6.7346L1.85697 4.99139H4.8227C5.16928 4.99139 5.47644 4.76822 5.58354 4.4386Z" fill="#F3B705" stroke="#F3B705"/>
<path d="M20.5835 4.4386L21.5 1.61803L22.4165 4.4386C22.5236 4.76822 22.8307 4.99139 23.1773 4.99139H26.143L23.7437 6.7346C23.4633 6.93831 23.346 7.29941 23.4531 7.62902L24.3695 10.4496L21.9702 8.70639C21.6898 8.50267 21.3102 8.50267 21.0298 8.70639L18.6305 10.4496L19.5469 7.62902C19.654 7.29941 19.5367 6.93831 19.2563 6.7346L16.857 4.99139H19.8227C20.1693 4.99139 20.4764 4.76822 20.5835 4.4386Z" fill="#F3B705" stroke="#F3B705"/>
<path d="M35.5835 4.4386L36.5 1.61803L37.4165 4.4386C37.5236 4.76822 37.8307 4.99139 38.1773 4.99139H41.143L38.7437 6.7346C38.4633 6.93831 38.346 7.29941 38.4531 7.62902L39.3695 10.4496L36.9702 8.70639C36.6898 8.50267 36.3102 8.50267 36.0298 8.70639L33.6305 10.4496L34.5469 7.62902C34.654 7.29941 34.5367 6.93831 34.2563 6.7346L31.857 4.99139H34.8227C35.1693 4.99139 35.4764 4.76822 35.5835 4.4386Z" fill="#F3B705" stroke="#F3B705"/>
<path d="M50.5835 4.4386L51.5 1.61803L52.4165 4.4386C52.5236 4.76822 52.8307 4.99139 53.1773 4.99139H56.143L53.7437 6.7346C53.4633 6.93831 53.346 7.29941 53.4531 7.62902L54.3695 10.4496L51.9702 8.70639C51.6898 8.50267 51.3102 8.50267 51.0298 8.70639L48.6305 10.4496L49.5469 7.62902C49.654 7.29941 49.5367 6.93831 49.2563 6.7346L46.857 4.99139H49.8227C50.1693 4.99139 50.4764 4.76822 50.5835 4.4386Z" fill="#F3B705" stroke="#F3B705"/>
<path d="M65.5835 4.4386L66.5 1.61803L67.4165 4.4386C67.5236 4.76822 67.8307 4.99139 68.1773 4.99139H71.143L68.7437 6.7346C68.4633 6.93831 68.346 7.29941 68.4531 7.62902L69.3695 10.4496L66.9702 8.70639C66.6898 8.50267 66.3102 8.50267 66.0298 8.70639L63.6305 10.4496L64.5469 7.62902C64.654 7.29941 64.5367 6.93831 64.2563 6.7346L61.857 4.99139H64.8227C65.1693 4.99139 65.4764 4.76822 65.5835 4.4386Z" fill="#F3B705" stroke="#F3B705"/>
</svg>
